<?xml version="1.0" encoding="utf-8"?>
<!-- Generator: Adobe Illustrator 19.1.0, SVG Export Plug-In . SVG Version: 6.00 Build 0)  -->
<svg version="1.1" id="Layer_1" xmlns="http://www.w3.org/2000/svg" xmlns:xlink="http://www.w3.org/1999/xlink" x="0px" y="0px"
	 viewBox="0 0 189.5 54.3" style="enable-background:new 0 0 189.5 54.3;" xml:space="preserve">
<style type="text/css">
	.st0{fill:#497BBE;}
</style>
<g>
	<polyline class="st0" points="47.3,9.2 49.7,9 49.7,12.2 47.3,12.5 	"/>
	<g>
		<path id="H_9_" class="st0" d="M61.7,29.3v8h9.2v-8h2.5v19h-2.5v-8.9h-9.2v8.9h-2.5v-19H61.7z"/>
		<path id="o_9_" class="st0" d="M89.3,41.4c0,5.1-3.5,7.3-6.8,7.3c-3.7,0-6.6-2.7-6.6-7c0-4.6,3-7.3,6.8-7.3
			C86.7,34.3,89.3,37.2,89.3,41.4z M78.5,41.5c0,3,1.7,5.3,4.2,5.3c2.4,0,4.2-2.2,4.2-5.3c0-2.3-1.2-5.3-4.1-5.3
			C79.7,36.2,78.5,38.9,78.5,41.5z"/>
		<path id="m_9_" class="st0" d="M91.8,38.4c0-1.4,0-2.6-0.1-3.7h2.2l0.1,2.2H94c0.8-1.3,2-2.5,4.3-2.5c1.9,0,3.3,1.1,3.9,2.7h0.1
			c0.4-0.8,1-1.4,1.5-1.8c0.8-0.6,1.7-1,3-1c1.8,0,4.5,1.2,4.5,5.9v8h-2.4v-7.7c0-2.6-1-4.2-3-4.2c-1.4,0-2.5,1-2.9,2.3
			c-0.1,0.3-0.2,0.8-0.2,1.2v8.4h-2.4v-8.2c0-2.2-1-3.8-2.9-3.8c-1.6,0-2.7,1.2-3.1,2.5c-0.1,0.4-0.2,0.8-0.2,1.2v8.2h-2.4V38.4z"/>
		<path id="e_9_" class="st0" d="M116.1,41.8c0.1,3.4,2.2,4.8,4.8,4.8c1.8,0,2.9-0.3,3.9-0.7l0.4,1.8c-0.9,0.4-2.4,0.9-4.6,0.9
			c-4.3,0-6.9-2.9-6.9-7.1c0-4.2,2.5-7.5,6.5-7.5c4.6,0,5.8,4,5.8,6.6c0,0.5-0.1,0.9-0.1,1.2H116.1z M123.6,40
			c0-1.6-0.7-4.1-3.5-4.1c-2.6,0-3.7,2.4-3.9,4.1H123.6z"/>
		<path id="A_9_" class="st0" d="M131.7,42.2l-2,6.1h-2.6l6.6-19.4h3l6.6,19.4h-2.7l-2.1-6.1H131.7z M138.1,40.3l-1.9-5.6
			c-0.4-1.3-0.7-2.4-1-3.5h-0.1c-0.3,1.2-0.6,2.3-1,3.5l-1.9,5.6H138.1z"/>
		<path id="w_9_" class="st0" d="M145.8,34.4l1.8,7.1c0.4,1.6,0.8,3,1,4.4h0.1c0.3-1.4,0.8-2.9,1.2-4.4l2.3-7.1h2.1l2.2,7
			c0.5,1.7,0.9,3.1,1.2,4.6h0.1c0.2-1.4,0.6-2.9,1.1-4.5l2-7h2.5L159,48.3h-2.3l-2.1-6.7c-0.5-1.6-0.9-2.9-1.2-4.6h-0.1
			c-0.3,1.7-0.8,3.1-1.3,4.6l-2.2,6.6h-2.3l-4.2-13.9H145.8z"/>
		<path id="a_9_" class="st0" d="M175.1,45c0,1.2,0.1,2.4,0.2,3.3H173l-0.2-1.8h-0.1c-0.8,1.1-2.3,2.1-4.3,2.1c-2.8,0-4.3-2-4.3-4
			c0-3.4,3-5.2,8.4-5.2v-0.3c0-1.2-0.3-3.2-3.2-3.2c-1.3,0-2.7,0.4-3.6,1l-0.6-1.7c1.2-0.7,2.8-1.2,4.6-1.2c4.3,0,5.3,2.9,5.3,5.7
			V45z M172.6,41.2c-2.8-0.1-5.9,0.4-5.9,3.1c0,1.6,1.1,2.4,2.4,2.4c1.8,0,3-1.2,3.4-2.3c0.1-0.3,0.1-0.5,0.1-0.8V41.2z"/>
		<path id="y_9_" class="st0" d="M179.2,34.4l3.1,8.2c0.3,0.9,0.7,2,0.9,2.9h0.1c0.3-0.8,0.5-1.9,0.9-2.9l2.8-8.2h2.7l-3.8,9.9
			c-1.6,4.2-2.9,6.7-4.8,8.3c-1.2,1.1-2.5,1.5-3.1,1.6l-0.6-2.1c0.6-0.2,1.5-0.6,2.2-1.2c0.7-0.5,1.6-1.5,2.1-2.8
			c0.1-0.3,0.2-0.5,0.2-0.6c0-0.1-0.1-0.3-0.2-0.7l-5.2-12.5H179.2z"/>
	</g>
	<g id="_xAE__9_">
		<path class="st0" d="M141.8,4.6c0,2.1-1.7,3.7-3.8,3.7c-2.1,0-3.8-1.6-3.8-3.7c0-2.1,1.7-3.7,3.8-3.7
			C140.2,0.9,141.8,2.5,141.8,4.6z M135.2,4.6c0,1.6,1.2,2.9,2.9,2.9c1.6,0,2.8-1.3,2.8-2.9c0-1.6-1.2-3-2.9-3
			C136.4,1.6,135.2,3,135.2,4.6z M137.5,6.5h-0.9V2.8c0.3,0,0.8-0.1,1.4-0.1c0.7,0,1,0.1,1.3,0.3c0.2,0.2,0.4,0.4,0.4,0.8
			c0,0.5-0.3,0.7-0.8,0.9v0c0.4,0.1,0.5,0.4,0.7,0.9c0.1,0.6,0.2,0.8,0.3,0.9h-0.9c-0.1-0.1-0.2-0.5-0.3-0.9
			c-0.1-0.4-0.3-0.6-0.8-0.6h-0.4V6.5z M137.5,4.4h0.4c0.5,0,0.9-0.2,0.9-0.5c0-0.3-0.3-0.6-0.8-0.6c-0.2,0-0.4,0-0.5,0V4.4z"/>
	</g>
	<g>
		<path class="st0" d="M40.9,0H15.3L0.3,17.8l5.3-0.4v19.2l-4,0.6c0,0-2,0.4-1.5,2.4c0.4,1.5,2,1.5,2,1.5l3.5-0.6v5.1L31,50.3
			l19.9-4.5l0-27.9l5.5-0.5L40.9,0z M35.7,21.2l5.5-0.5v7.3l-5.6,0.7L35.7,21.2z M7.4,44.3v-4l11-1.8c0,0,1.9,0,1.7-2.1
			C20,34.5,18,34.8,18,34.8L7.4,36.4V16.9L18.6,3.7L31,17.5v31.1L7.4,44.3z M35.6,38.6l0-7.6l5.6-0.8l0,7.3L35.6,38.6z M48.1,36.4
			l-4.6,0.8V30l4.6-0.7V36.4z M43.5,20.4l4.6-0.4l0,7.1l-4.6,0.6"/>
		<path class="st0" d="M23.8,18c-1.3-1.5-3.1-2.5-5-2.5c-0.1,0-0.2,0-0.3,0c-1.9,0.1-3.6,1.1-4.8,2.7c-1.2,1.5-1.9,3.6-1.9,5.8
			c0,0.2,0,0.4,0,0.6c0.1,2.3,1,4.4,2.3,5.9c1.3,1.5,3.1,2.5,5,2.5c0.1,0,0.2,0,0.3,0c1.9-0.1,3.6-1.1,4.8-2.7
			c1.2-1.5,1.9-3.6,1.9-5.8c0-0.2,0-0.4,0-0.6C25.9,21.6,25.1,19.5,23.8,18z M23,29.4c-1,1.3-2.3,2-3.7,2.1c-0.1,0-0.2,0-0.2,0
			c-1.5,0-2.9-0.7-3.9-2c-1.1-1.2-1.8-3-1.9-5c0-0.2,0-0.3,0-0.5c0-1.9,0.6-3.7,1.6-5c1-1.3,2.3-2,3.8-2.1c0.1,0,0.2,0,0.2,0
			c1.5,0,2.9,0.7,3.9,2c1.1,1.2,1.8,3,1.9,5c0,0.2,0,0.3,0,0.5C24.6,26.4,24,28.1,23,29.4z"/>
		<path class="st0" d="M16.4,24.4c-0.1-2.5,0.7-4.7,1.9-5.5c-2.1,0.1-3.7,2.6-3.5,5.6c0.2,3,2,5.3,4.1,5.2v0
			C17.6,29,16.6,26.9,16.4,24.4z"/>
	</g>
	<g>
		<path class="st0" d="M63.6,14.7l-1.9,5.7h-2.4l6.2-18.2h2.8l6.2,18.2H72l-1.9-5.7H63.6z M69.6,12.9l-1.8-5.3
			c-0.4-1.2-0.7-2.3-0.9-3.3h-0.1c-0.3,1.1-0.6,2.2-0.9,3.3l-1.8,5.3H69.6z"/>
		<path class="st0" d="M76.4,20.4c0.1-0.9,0.1-2.2,0.1-3.4V1.2h2.4v8.2h0.1C79.8,8,81.3,7,83.4,7c3.2,0,5.5,2.7,5.5,6.7
			c0,4.7-3,7-5.9,7c-1.9,0-3.4-0.7-4.4-2.5h-0.1l-0.1,2.2H76.4z M78.9,15.2c0,0.3,0.1,0.6,0.1,0.9c0.5,1.7,1.8,2.8,3.6,2.8
			c2.5,0,4-2,4-5c0-2.6-1.4-4.9-3.9-4.9c-1.6,0-3.1,1.1-3.6,2.9c-0.1,0.3-0.1,0.6-0.1,1V15.2z"/>
		<path class="st0" d="M91.4,11.4c0-1.5,0-2.9-0.1-4.1h2.1l0.1,2.6h0.1c0.6-1.8,2-2.9,3.6-2.9c0.3,0,0.5,0,0.7,0.1v2.2
			c-0.2-0.1-0.5-0.1-0.8-0.1c-1.7,0-2.9,1.3-3.2,3.1c-0.1,0.3-0.1,0.7-0.1,1.1v7h-2.4V11.4z"/>
		<path class="st0" d="M102.5,3.7c0,0.8-0.6,1.5-1.5,1.5c-0.8,0-1.4-0.6-1.4-1.5c0-0.8,0.6-1.5,1.5-1.5
			C101.9,2.2,102.5,2.8,102.5,3.7z M99.8,20.4V7.3h2.4v13.1H99.8z"/>
		<path class="st0" d="M108.5,3.6v3.8h3.4v1.8h-3.4v7.1c0,1.6,0.5,2.5,1.8,2.5c0.6,0,1.1-0.1,1.4-0.2l0.1,1.8
			c-0.5,0.2-1.2,0.3-2.1,0.3c-1.1,0-2-0.4-2.6-1c-0.7-0.7-0.9-1.9-0.9-3.4V9.1h-2V7.3h2V4.2L108.5,3.6z"/>
		<path class="st0" d="M115.2,14.3c0.1,3.2,2.1,4.5,4.5,4.5c1.7,0,2.7-0.3,3.6-0.7l0.4,1.7c-0.8,0.4-2.3,0.8-4.4,0.8
			c-4,0-6.4-2.7-6.4-6.6c0-4,2.3-7.1,6.1-7.1c4.3,0,5.4,3.8,5.4,6.2c0,0.5-0.1,0.9-0.1,1.1H115.2z M122.2,12.6
			c0-1.5-0.6-3.9-3.3-3.9c-2.4,0-3.5,2.2-3.7,3.9H122.2z"/>
		<path class="st0" d="M126.9,1.2h2.4v19.2h-2.4V1.2z"/>
	</g>
</g>
</svg>
